<svg width="80" height="80" fill="none" xmlns="http://www.w3.org/2000/svg"><rect width="80" height="80" rx="10" fill="#FDBB59"/><g clip-path="url(#a)" fill="#1C1F21"><path d="M44.75 31.292c-.874 0-1.584-.71-1.584-1.583v-2.375h-6.333v2.375a1.584 1.584 0 0 1-3.166 0v-2.375a3.17 3.17 0 0 1 3.166-3.167h6.334a3.17 3.17 0 0 1 3.166 3.167v2.375c0 .874-.71 1.583-1.583 1.583ZM41.124 45.352c-.285.11-.697.19-1.124.19-.428 0-.84-.08-1.22-.222L21 39.398V51.48a4.352 4.352 0 0 0 4.354 4.354h29.292A4.352 4.352 0 0 0 59 51.48V39.4l-17.876 5.953Z"/><path d="M59 33.271v3.626l-18.62 6.207a1.064 1.064 0 0 1-.38.063c-.127 0-.253-.016-.38-.063L21 36.897v-3.626a4.352 4.352 0 0 1 4.354-4.354h29.292A4.352 4.352 0 0 1 59 33.271Z"/></g><defs><clipPath id="a"><path fill="#fff" transform="translate(21 21)" d="M0 0h38v38H0z"/></clipPath></defs></svg>