<svg width="100" height="100" fill="none" xmlns="http://www.w3.org/2000/svg"><g filter="url(#a)"><rect x="6" y="6" width="80" height="80" rx="10" fill="#1C1F21"/></g><g clip-path="url(#b)"><path d="m63.975 43.528-.003-.002-15.5-15.5A3.475 3.475 0 0 0 45.997 27c-.935 0-1.813.364-2.474 1.025L28.03 43.517l-.016.016a3.502 3.502 0 0 0 .007 4.94 3.478 3.478 0 0 0 2.322 1.02c.035.004.071.006.107.006h.618v11.407A4.099 4.099 0 0 0 35.164 65h6.064c.615 0 1.113-.498 1.113-1.113v-8.944a1.87 1.87 0 0 1 1.868-1.868h3.577a1.87 1.87 0 0 1 1.868 1.868v8.944c0 .615.499 1.113 1.113 1.113h6.065a4.099 4.099 0 0 0 4.094-4.094V49.5h.573c.934 0 1.813-.364 2.474-1.025a3.504 3.504 0 0 0 .002-4.946Z" fill="#FDBB59"/></g><defs><clipPath id="b"><path fill="#fff" transform="translate(27 27)" d="M0 0h38v38H0z"/></clipPath><filter id="a" x="0" y="0" width="100" height="100" filterUnits="userSpaceOnUse" color-interpolation-filters="sRGB"><feFlood flood-opacity="0" result="BackgroundImageFix"/><feColorMatrix in="SourceAlpha" values="0 0 0 0 0 0 0 0 0 0 0 0 0 0 0 0 0 0 127 0" result="hardAlpha"/><feOffset dx="4" dy="4"/><feGaussianBlur stdDeviation="5"/><feComposite in2="hardAlpha" operator="out"/><feColorMatrix values="0 0 0 0 0.716667 0 0 0 0 0.467478 0 0 0 0 0.0955555 0 0 0 1 0"/><feBlend in2="BackgroundImageFix" result="effect1_dropShadow_168_151"/><feBlend in="SourceGraphic" in2="effect1_dropShadow_168_151" result="shape"/></filter></defs></svg>