<svg width="80" height="80" fill="none" xmlns="http://www.w3.org/2000/svg"><rect width="80" height="80" rx="10" fill="#FDBB59"/><g clip-path="url(#a)" fill="#1C1F21"><path d="M52.38 41.435h-4.512v2.306a1.114 1.114 0 0 1 0 2.183v4.893h4.513v-9.382ZM33.098 39.015a1.112 1.112 0 0 1 0 1.868v2.739l1.704-.375v-6.522l-1.704-.374v2.664ZM30.872 40.883a1.112 1.112 0 0 1 0-1.868v-3.153l-1.704-.375v8.998l1.704-.374v-3.227Z"/><path d="M22.39 24.375A1.113 1.113 0 0 0 21 25.453V54.52a1.114 1.114 0 0 0 1.39 1.078l17.515-4.494V28.87L22.39 24.375ZM36.154 45.23l-7.86 1.727a1.12 1.12 0 0 1-.937-.22 1.114 1.114 0 0 1-.416-.867V34.103a1.114 1.114 0 0 1 1.352-1.088l7.861 1.727c.511.112.875.565.875 1.088v8.313c0 .523-.364.975-.875 1.087ZM57.887 29.155H42.13v21.662h3.51V40.323c0-.615.499-1.114 1.114-1.114h6.739c.615 0 1.113.499 1.113 1.114v10.494h3.28c.614 0 1.113-.499 1.113-1.113V30.269c0-.615-.498-1.114-1.113-1.114Z"/></g><defs><clipPath id="a"><path fill="#fff" transform="translate(21 21)" d="M0 0h38v38H0z"/></clipPath></defs></svg>